<svg width="242" height="242" viewBox="0 0 242 242" fill="none" xmlns="http://www.w3.org/2000/svg">
<path d="M240.592 99.7377L99.741 1.41699L1.42022 142.268L142.271 240.589L240.592 99.7377Z" stroke="white" stroke-width="2" stroke-miterlimit="10" stroke-linecap="round" stroke-linejoin="round"/>
<path d="M223.99 65.9487L63.3235 16.6562L14.031 177.323L174.698 226.616L223.99 65.9487Z" fill="url(#paint0_linear_5863_686)"/>
<path d="M223.99 65.9487L63.3235 16.6562L14.031 177.323L174.698 226.616L223.99 65.9487Z" fill="url(#paint1_linear_5863_686)"/>
<path d="M34.2684 40.9521L198.892 43.9413L182.496 79.2086L16.5386 77.1303L34.2684 40.9521Z" fill="url(#paint2_linear_5863_686)"/>
<path opacity="0.6" d="M181.162 80.1323L34.2686 40.9521L198.892 43.9413L181.162 80.1323Z" fill="url(#paint3_linear_5863_686)"/>
<path d="M38.5277 97.4779L16.5386 77.1309L44.66 77.4772L38.5277 97.4779Z" fill="#8C6100"/>
<path d="M240.587 99.7354L142.264 240.586L1.41309 142.264" stroke="white" stroke-width="2" stroke-miterlimit="10" stroke-linecap="round" stroke-linejoin="round"/>
<path d="M182.496 79.2088L193.055 56.4756L197.096 57.6944L185.332 82.9934L43.5183 81.2102L44.6601 77.4769L182.496 79.2088Z" fill="#191919"/>
<defs>
<linearGradient id="paint0_linear_5863_686" x1="113.944" y1="-61.0897" x2="265.474" y2="15.4253" gradientUnits="userSpaceOnUse">
<stop stop-color="#4D1735"/>
<stop offset="1" stop-color="#05325E"/>
</linearGradient>
<linearGradient id="paint1_linear_5863_686" x1="113.944" y1="-61.0897" x2="265.474" y2="15.4253" gradientUnits="userSpaceOnUse">
<stop stop-color="#06DBAC"/>
<stop offset="1" stop-color="#BD00FF"/>
</linearGradient>
<linearGradient id="paint2_linear_5863_686" x1="61.2018" y1="14.0218" x2="154.445" y2="107.269" gradientUnits="userSpaceOnUse">
<stop stop-color="#FFEB00"/>
<stop offset="0.2283" stop-color="#FFC400"/>
<stop offset="1" stop-color="#FF9900"/>
</linearGradient>
<linearGradient id="paint3_linear_5863_686" x1="84.6778" y1="1.58806" x2="159.324" y2="97.1775" gradientUnits="userSpaceOnUse">
<stop offset="0.0293" stop-color="white" stop-opacity="0.95"/>
<stop offset="1" stop-color="white" stop-opacity="0"/>
</linearGradient>
</defs>
</svg>
