<svg width="18" height="17" viewBox="0 0 18 17" fill="none" xmlns="http://www.w3.org/2000/svg">
<path fill-rule="evenodd" clip-rule="evenodd" d="M3.65936 12.5991C3.71447 12.5394 3.78107 12.4915 3.85515 12.4582C3.92924 12.4248 4.00929 12.4068 4.09051 12.4051H17.6371C17.6945 12.4059 17.7503 12.4233 17.798 12.4551C17.8457 12.4869 17.8832 12.5318 17.906 12.5844C17.9287 12.637 17.9358 12.6951 17.9264 12.7516C17.9169 12.8081 17.8913 12.8607 17.8527 12.9031L14.9813 16.0914C14.9262 16.1511 14.8596 16.1991 14.7855 16.2324C14.7114 16.2657 14.6313 16.2838 14.5501 16.2854H0.994879C0.937562 16.2846 0.881699 16.2673 0.834009 16.2355C0.786319 16.2037 0.748833 16.1588 0.726061 16.1062C0.703288 16.0536 0.696198 15.9955 0.705644 15.9389C0.71509 15.8824 0.74067 15.8298 0.779306 15.7875L3.65936 12.5991ZM17.8656 9.9562C17.9043 9.99855 17.9299 10.0512 17.9393 10.1077C17.9487 10.1642 17.9417 10.2223 17.9189 10.2749C17.8961 10.3275 17.8586 10.3724 17.8109 10.4042C17.7632 10.436 17.7074 10.4534 17.6501 10.4542L4.09913 10.465C4.01791 10.4633 3.93786 10.4453 3.86377 10.4119C3.78969 10.3786 3.7231 10.3306 3.66799 10.2709L0.774994 7.09339C0.736358 7.05105 0.710779 6.99844 0.701333 6.9419C0.691887 6.88536 0.698976 6.8273 0.721749 6.77469C0.744522 6.72209 0.782008 6.67718 0.829698 6.64538C0.877387 6.61357 0.933251 6.59622 0.990567 6.59542L14.5415 6.58464C14.6227 6.5863 14.7028 6.60434 14.7769 6.63768C14.8509 6.67101 14.9175 6.71896 14.9726 6.77865L17.8656 9.9562ZM3.65936 0.958176C3.71447 0.898487 3.78107 0.850537 3.85515 0.817199C3.92924 0.783861 4.00929 0.765821 4.09051 0.76416L17.6458 0.774939C17.7031 0.775746 17.7589 0.793095 17.8066 0.8249C17.8543 0.856705 17.8918 0.90161 17.9146 0.954215C17.9373 1.00682 17.9444 1.06488 17.935 1.12142C17.9255 1.17796 17.9 1.23057 17.8613 1.27291L14.9813 4.45046C14.9262 4.51015 14.8596 4.5581 14.7855 4.59144C14.7114 4.62478 14.6313 4.64282 14.5501 4.64448H0.994879C0.937562 4.64367 0.881699 4.62632 0.834009 4.59452C0.786319 4.56271 0.748833 4.51781 0.726061 4.4652C0.703288 4.4126 0.696198 4.35453 0.705644 4.29799C0.71509 4.24146 0.74067 4.18885 0.779306 4.1465L3.65936 0.958176Z" fill="white"/>
</svg>
