<svg width="29" height="32" viewBox="0 0 29 32" fill="none" xmlns="http://www.w3.org/2000/svg">
<path d="M5.62499 19.3769H7.49999C8.53593 19.3769 9.37499 18.5089 9.37499 17.4394V15.5019C9.37499 14.4315 8.53593 13.5644 7.49999 13.5644H5.62499C4.58906 13.5644 3.74999 14.4315 3.74999 15.5019V17.4394C3.74999 18.5089 4.58906 19.3769 5.62499 19.3769ZM5.62499 15.5019H7.49999V17.4394H5.62499V15.5019ZM20.625 27.1269H22.5C23.5359 27.1269 24.375 26.2598 24.375 25.1894V23.2519C24.375 22.1815 23.5359 21.3145 22.5 21.3145H20.625C19.59 21.3145 18.75 22.1815 18.75 23.2519V25.1894C18.75 26.2598 19.589 27.1269 20.625 27.1269ZM20.625 23.2519H22.5V25.1894H20.625V23.2519ZM20.625 19.3769H22.5C23.5359 19.3769 24.375 18.5089 24.375 17.4394V15.5019C24.375 14.4315 23.5359 13.5644 22.5 13.5644H20.625C19.59 13.5644 18.75 14.4315 18.75 15.5019V17.4394C18.75 18.5089 19.589 19.3769 20.625 19.3769ZM20.625 15.5019H22.5V17.4394H20.625V15.5019ZM24.375 1.93945H20.625V0.970702C20.625 0.435943 20.205 0.00195312 19.6875 0.00195312C19.1701 0.00195312 18.75 0.435943 18.75 0.970702V1.93945H9.37503V0.970702C9.37499 0.435943 8.955 0.00195312 8.43749 0.00195312C7.91998 0.00195312 7.49999 0.435943 7.49999 0.970702V1.93945H3.74999C1.67909 1.93945 0 3.67451 0 5.81444V27.1269C0 29.2668 1.67909 31.002 3.74999 31.002H24.375C26.4459 31.002 28.125 29.2669 28.125 27.1269V5.81444C28.125 3.67446 26.4459 1.93945 24.375 1.93945ZM26.25 27.1269C26.25 28.1974 25.4109 29.0644 24.375 29.0644H3.74999C2.71406 29.0644 1.875 28.1964 1.875 27.1269V9.68944H26.25V27.1269H26.25ZM26.25 7.75194H1.875V5.81444C1.875 4.74398 2.71406 3.87695 3.74999 3.87695H7.49999V4.8457C7.49999 5.38045 7.91998 5.81444 8.43749 5.81444C8.955 5.81444 9.37499 5.38045 9.37499 4.8457V3.87695H18.75V4.8457C18.75 5.38045 19.17 5.81444 19.6875 5.81444C20.2049 5.81444 20.625 5.38045 20.625 4.8457V3.87695H24.375C25.4109 3.87695 26.25 4.74398 26.25 5.81444V7.75194ZM13.125 27.1269H15C16.0359 27.1269 16.875 26.2598 16.875 25.1894V23.2519C16.875 22.1815 16.0359 21.3145 15 21.3145H13.125C12.09 21.3145 11.25 22.1815 11.25 23.2519V25.1894C11.25 26.2598 12.089 27.1269 13.125 27.1269ZM13.125 23.2519H15V25.1894H13.125V23.2519ZM13.125 19.3769H15C16.0359 19.3769 16.875 18.5089 16.875 17.4394V15.5019C16.875 14.4315 16.0359 13.5644 15 13.5644H13.125C12.09 13.5644 11.25 14.4315 11.25 15.5019V17.4394C11.25 18.5089 12.089 19.3769 13.125 19.3769ZM13.125 15.5019H15V17.4394H13.125V15.5019ZM5.62499 27.1269H7.49999C8.53593 27.1269 9.37499 26.2598 9.37499 25.1894V23.2519C9.37499 22.1815 8.53593 21.3145 7.49999 21.3145H5.62499C4.58906 21.3145 3.74999 22.1815 3.74999 23.2519V25.1894C3.74999 26.2598 4.58906 27.1269 5.62499 27.1269ZM5.62499 23.2519H7.49999V25.1894H5.62499V23.2519Z" fill="white"/>
</svg>
