<svg width="31" height="32" viewBox="0 0 31 32" fill="none" xmlns="http://www.w3.org/2000/svg">
<path d="M15.0625 0C6.77827 0 0.0625 6.94061 0.0625 15.501C0.0625 24.0613 6.77827 31.0019 15.0625 31.0019C23.3467 31.0019 30.0625 24.0603 30.0625 15.501C30.0625 6.94061 23.3477 0 15.0625 0ZM15.0625 28.0171C8.38332 28.0171 2.951 22.4028 2.951 15.501C2.951 8.59915 8.38332 2.98478 15.0625 2.98478C21.7417 2.98478 27.174 8.59915 27.174 15.501C27.174 22.4038 21.7417 28.0171 15.0625 28.0171Z" fill="white"/>
<path d="M21.3862 14.5059H17.1093C16.885 14.0114 16.4998 13.6145 16.0223 13.3826V6.10674C16.0223 5.55754 15.5928 5.11182 15.0594 5.11182C14.527 5.11182 14.0966 5.55754 14.0966 6.10674V13.3826C13.3254 13.7577 12.7891 14.5616 12.7891 15.5008C12.7891 16.7972 13.8058 17.8479 15.0594 17.8479C15.9683 17.8479 16.7463 17.2917 17.1093 16.4958H21.3862C21.9187 16.4958 22.349 16.05 22.349 15.5008C22.349 14.9516 21.9187 14.5059 21.3862 14.5059Z" fill="white"/>
</svg>
