<svg width="23" height="21" viewBox="0 0 23 21" fill="none" xmlns="http://www.w3.org/2000/svg">
<path d="M7.33934 0.0630002C8.51267 0.0116661 8.8879 0 11.875 0C14.8621 0 15.2374 0.0116661 16.4107 0.0630002C17.5816 0.114333 18.3809 0.291667 19.08 0.550667C19.8035 0.819003 20.4172 1.17834 21.0283 1.76284C21.6406 2.34618 22.017 2.93184 22.2982 3.62251C22.5694 4.28984 22.7552 5.05286 22.809 6.17053C22.8628 7.29053 22.875 7.64868 22.875 10.5C22.875 13.3514 22.8628 13.7095 22.809 14.8295C22.7552 15.9472 22.5694 16.7102 22.2982 17.3775C22.017 18.0683 21.6406 18.6539 21.0283 19.2373C20.4172 19.8217 19.8035 20.181 19.08 20.4494C18.3809 20.7085 17.5816 20.8858 16.4107 20.937C15.2374 20.9883 14.8621 21 11.875 21C8.8879 21 8.51267 20.9883 7.33934 20.937C6.16845 20.8858 5.36912 20.7085 4.67 20.4494C3.94646 20.181 3.33289 19.8217 2.72177 19.2373C2.10944 18.6539 1.733 18.0683 1.45189 17.3775C1.18056 16.7102 0.994779 15.9472 0.941 14.8295C0.887223 13.7095 0.875 13.3514 0.875 10.5C0.875 7.64868 0.887223 7.29053 0.941 6.17053C0.994779 5.05286 1.18056 4.28984 1.45189 3.62251C1.733 2.93184 2.10944 2.34618 2.72177 1.76284C3.33289 1.17834 3.94646 0.819003 4.67 0.550667C5.36912 0.291667 6.16845 0.114333 7.33934 0.0630002ZM16.3202 1.95301C15.1603 1.90285 14.812 1.89234 11.875 1.89234C8.93801 1.89234 8.58968 1.90285 7.42979 1.95301C6.3579 1.99968 5.77489 2.17118 5.38745 2.31468C4.87412 2.50484 4.50746 2.73234 4.12245 3.09985C3.73745 3.46735 3.49911 3.81734 3.29989 4.30734C3.14955 4.67719 2.96989 5.23368 2.921 6.25685C2.86844 7.36402 2.85745 7.69652 2.85745 10.5C2.85745 13.3035 2.86844 13.6361 2.921 14.7432C2.96989 15.7664 3.14955 16.3229 3.29989 16.6927C3.49911 17.1827 3.73745 17.5328 4.12245 17.9002C4.50746 18.2677 4.87412 18.4953 5.38745 18.6854C5.77489 18.8289 6.3579 19.0004 7.42979 19.047C8.58968 19.0972 8.93801 19.1078 11.875 19.1078C14.812 19.1078 15.1603 19.0972 16.3202 19.047C17.3922 19.0004 17.9752 18.8289 18.3626 18.6854C18.8759 18.4953 19.2425 18.2677 19.6276 17.9002C20.0126 17.5328 20.2508 17.1827 20.4502 16.6927C20.6005 16.3229 20.7802 15.7664 20.829 14.7432C20.8816 13.6361 20.8925 13.3035 20.8925 10.5C20.8925 7.69652 20.8816 7.36402 20.829 6.25685C20.7802 5.23368 20.6005 4.67719 20.4502 4.30734C20.2508 3.81734 20.0126 3.46735 19.6276 3.09985C19.2425 2.73234 18.8759 2.50484 18.3626 2.31468C17.9752 2.17118 17.3922 1.99968 16.3202 1.95301ZM6.2259 10.5C6.2259 7.52268 8.7559 5.10768 11.875 5.10768C14.9941 5.10768 17.5242 7.52268 17.5242 10.5C17.5242 13.4774 14.9941 15.8924 11.875 15.8924C8.7559 15.8924 6.2259 13.4774 6.2259 10.5ZM8.20835 10.5C8.20835 12.4332 9.84978 14 11.875 14C13.9002 14 15.5417 12.4332 15.5417 10.5C15.5417 8.56686 13.9002 7.00002 11.875 7.00002C9.84978 7.00002 8.20835 8.56686 8.20835 10.5ZM19.0668 4.89512C19.0668 5.59045 18.4753 6.15512 17.7468 6.15512C17.0183 6.15512 16.4268 5.59045 16.4268 4.89512C16.4268 4.19979 17.0183 3.63511 17.7468 3.63511C18.4753 3.63511 19.0668 4.19979 19.0668 4.89512Z" fill="white"/>
</svg>
