<svg width="24" height="36" viewBox="0 0 24 36" fill="none" xmlns="http://www.w3.org/2000/svg">
<path d="M7.33934 0.0540002C8.51267 0.00999951 8.8879 0 11.875 0C14.8621 0 15.2374 0.00999951 16.4107 0.0540002C17.5816 0.0979995 18.3809 0.250001 19.08 0.472001C19.8035 0.702002 20.4172 1.01001 21.0283 1.51101C21.6406 2.01101 22.017 2.51301 22.2982 3.10501C22.5694 3.67701 22.7552 4.33102 22.809 5.28902C22.8628 6.24902 22.875 6.55601 22.875 9.00002C22.875 11.444 22.8628 11.751 22.809 12.711C22.7552 13.6691 22.5694 14.323 22.2982 14.895C22.017 15.4871 21.6406 15.989 21.0283 16.4891C20.4172 16.9901 19.8035 17.298 19.08 17.528C18.3809 17.7501 17.5816 17.9021 16.4107 17.946C15.2374 17.99 14.8621 18 11.875 18C8.8879 18 8.51267 17.99 7.33934 17.946C6.16845 17.9021 5.36912 17.7501 4.67 17.528C3.94646 17.298 3.33289 16.9901 2.72177 16.4891C2.10944 15.989 1.733 15.4871 1.45189 14.895C1.18056 14.323 0.994779 13.6691 0.941 12.711C0.887223 11.751 0.875 11.444 0.875 9.00002C0.875 6.55601 0.887223 6.24902 0.941 5.28902C0.994779 4.33102 1.18056 3.67701 1.45189 3.10501C1.733 2.51301 2.10944 2.01101 2.72177 1.51101C3.33289 1.01001 3.94646 0.702002 4.67 0.472001C5.36912 0.250001 6.16845 0.0979995 7.33934 0.0540002ZM16.3202 1.67401C15.1603 1.63101 14.812 1.62201 11.875 1.62201C8.93801 1.62201 8.58968 1.63101 7.42979 1.67401C6.3579 1.71401 5.77489 1.86101 5.38745 1.98401C4.87412 2.14701 4.50746 2.342 4.12245 2.65701C3.73745 2.97201 3.49911 3.27201 3.29989 3.69201C3.14955 4.00902 2.96989 4.48601 2.921 5.36302C2.86844 6.31201 2.85745 6.59701 2.85745 9.00002C2.85745 11.403 2.86844 11.688 2.921 12.637C2.96989 13.5141 3.14955 13.991 3.29989 14.308C3.49911 14.728 3.73745 15.0281 4.12245 15.3431C4.50746 15.658 4.87412 15.8531 5.38745 16.016C5.77489 16.139 6.3579 16.286 7.42979 16.326C8.58968 16.3691 8.93801 16.3781 11.875 16.3781C14.812 16.3781 15.1603 16.3691 16.3202 16.326C17.3922 16.286 17.9752 16.139 18.3626 16.016C18.8759 15.8531 19.2425 15.658 19.6276 15.3431C20.0126 15.0281 20.2508 14.728 20.4502 14.308C20.6005 13.991 20.7802 13.5141 20.829 12.637C20.8816 11.688 20.8925 11.403 20.8925 9.00002C20.8925 6.59701 20.8816 6.31201 20.829 5.36302C20.7802 4.48601 20.6005 4.00902 20.4502 3.69201C20.2508 3.27201 20.0126 2.97201 19.6276 2.65701C19.2425 2.342 18.8759 2.14701 18.3626 1.98401C17.9752 1.86101 17.3922 1.71401 16.3202 1.67401ZM6.2259 9.00002C6.2259 6.44801 8.7559 4.37801 11.875 4.37801C14.9941 4.37801 17.5242 6.44801 17.5242 9.00002C17.5242 11.552 14.9941 13.6221 11.875 13.6221C8.7559 13.6221 6.2259 11.552 6.2259 9.00002ZM8.20835 9.00002C8.20835 10.657 9.84978 12 11.875 12C13.9002 12 15.5417 10.657 15.5417 9.00002C15.5417 7.34303 13.9002 6.00002 11.875 6.00002C9.84978 6.00002 8.20835 7.34303 8.20835 9.00002ZM19.0668 4.19582C19.0668 4.79182 18.4753 5.27582 17.7468 5.27582C17.0183 5.27582 16.4268 4.79182 16.4268 4.19582C16.4268 3.59982 17.0183 3.11581 17.7468 3.11581C18.4753 3.11581 19.0668 3.59982 19.0668 4.19582Z" fill="white"/>
<path d="M2.68265 23.1582V30.4287H1.7189V23.1582H2.68265ZM7.07193 23.1582L4.05087 26.5488L2.35308 28.3115L2.19328 27.2828L3.47162 25.8746L5.91344 23.1582H7.07193ZM6.14314 30.4287L3.45165 26.8833L4.0259 26.1193L7.29165 30.4287H6.14314ZM9.1742 23.1582V30.4287H8.21045V23.1582H9.1742ZM12.8944 30.4287H11.3763L11.3863 29.6447H12.8944C13.4137 29.6447 13.8464 29.5365 14.1927 29.3202C14.5389 29.1004 14.7985 28.7942 14.9716 28.4014C15.1481 28.0052 15.2363 27.5425 15.2363 27.0132V26.5687C15.2363 26.1526 15.1864 25.7831 15.0865 25.4602C14.9866 25.1339 14.8402 24.8593 14.6471 24.6363C14.454 24.4099 14.2176 24.2384 13.938 24.1219C13.6617 24.0054 13.3438 23.9471 12.9842 23.9471H11.3464V23.1582H12.9842C13.4603 23.1582 13.8947 23.2381 14.2875 23.3979C14.6804 23.5543 15.0183 23.7824 15.3012 24.082C15.5875 24.3783 15.8072 24.7378 15.9604 25.1606C16.1135 25.58 16.1901 26.0527 16.1901 26.5787V27.0132C16.1901 27.5391 16.1135 28.0135 15.9604 28.4363C15.8072 28.8558 15.5858 29.2136 15.2962 29.5099C15.0099 29.8062 14.6637 30.0342 14.2576 30.194C13.8548 30.3505 13.4004 30.4287 12.8944 30.4287ZM11.8907 23.1582V30.4287H10.9269V23.1582H11.8907ZM21.5131 28.5911C21.5131 28.4213 21.4865 28.2715 21.4332 28.1417C21.3833 28.0085 21.2934 27.8887 21.1636 27.7822C21.0371 27.6756 20.8606 27.5741 20.6343 27.4776C20.4112 27.381 20.1283 27.2828 19.7854 27.1829C19.4258 27.0764 19.1013 26.9582 18.8116 26.8284C18.522 26.6952 18.274 26.5438 18.0676 26.374C17.8612 26.2042 17.7031 26.0095 17.5932 25.7898C17.4834 25.57 17.4284 25.3187 17.4284 25.0357C17.4284 24.7528 17.4867 24.4914 17.6032 24.2518C17.7197 24.0121 17.8862 23.804 18.1026 23.6276C18.3223 23.4478 18.5836 23.308 18.8866 23.2081C19.1895 23.1082 19.5274 23.0583 19.9002 23.0583C20.4462 23.0583 20.9089 23.1632 21.2884 23.3729C21.6713 23.5793 21.9625 23.8506 22.1623 24.1868C22.362 24.5197 22.4619 24.8759 22.4619 25.2554H21.5031C21.5031 24.9825 21.4449 24.7411 21.3284 24.5314C21.2119 24.3183 21.0354 24.1519 20.7991 24.032C20.5627 23.9089 20.2631 23.8473 19.9002 23.8473C19.5573 23.8473 19.2744 23.8989 19.0513 24.0021C18.8283 24.1053 18.6618 24.2451 18.552 24.4215C18.4455 24.598 18.3922 24.7994 18.3922 25.0257C18.3922 25.1789 18.4238 25.3187 18.4871 25.4452C18.5537 25.5684 18.6552 25.6832 18.7917 25.7898C18.9315 25.8963 19.1079 25.9945 19.321 26.0844C19.5374 26.1742 19.7954 26.2608 20.095 26.344C20.5078 26.4605 20.864 26.5904 21.1636 26.7335C21.4632 26.8767 21.7095 27.0381 21.9026 27.2179C22.099 27.3943 22.2438 27.5957 22.3371 27.8221C22.4336 28.0451 22.4819 28.2982 22.4819 28.5811C22.4819 28.8774 22.4219 29.1454 22.3021 29.3851C22.1823 29.6248 22.0108 29.8295 21.7878 29.9993C21.5647 30.169 21.2967 30.3005 20.9838 30.3938C20.6742 30.4836 20.328 30.5286 19.9452 30.5286C19.6089 30.5286 19.2777 30.482 18.9515 30.3888C18.6286 30.2956 18.3339 30.1557 18.0676 29.9693C17.8046 29.7829 17.5932 29.5532 17.4334 29.2802C17.277 29.0039 17.1987 28.6843 17.1987 28.3215H18.1575C18.1575 28.5711 18.2058 28.7858 18.3023 28.9656C18.3989 29.1421 18.5303 29.2885 18.6968 29.405C18.8666 29.5216 19.058 29.6081 19.2711 29.6647C19.4874 29.718 19.7121 29.7446 19.9452 29.7446C20.2814 29.7446 20.566 29.698 20.7991 29.6048C21.0321 29.5116 21.2085 29.3784 21.3284 29.2053C21.4515 29.0322 21.5131 28.8275 21.5131 28.5911Z" fill="white"/>
</svg>
