<svg width="72" height="61" viewBox="0 0 72 61" fill="none" xmlns="http://www.w3.org/2000/svg">
<path d="M69.5391 0H2.46094C1.10405 0 0 1.0832 0 2.41446V10.9127C0 12.2506 2.10938 12.2506 2.10938 10.9127V2.41446C2.10938 2.22434 2.26702 2.06954 2.46094 2.06954H69.5391C69.733 2.06954 69.8906 2.22434 69.8906 2.41446V52.8752C69.8906 53.0653 69.733 53.2201 69.5391 53.2201H56.0233V51.0669H66.6312C67.2138 51.0669 67.6859 50.6036 67.6859 50.0322V39.1962C67.6859 37.8583 65.5765 37.8583 65.5765 39.1962V48.9974H56.0233V44.4062C56.0576 44.4091 56.0922 44.412 56.1247 44.4149C57.0002 44.4904 58.0892 44.5843 58.8437 43.8427C59.5973 43.102 59.5019 42.0324 59.4253 41.173C59.3428 40.2507 59.4316 39.9982 60.1542 39.409C62.0145 37.8913 62.0491 36.2663 60.1542 34.7208C59.4316 34.1311 59.3432 33.8789 59.4253 32.9564C59.6317 30.6417 58.5298 29.5073 56.1247 29.7147C55.186 29.7955 54.9314 29.7081 54.3329 28.9991C52.7884 27.1696 51.131 27.1358 49.5578 28.9991C48.9593 29.7079 48.7048 29.7958 47.7661 29.7147C45.4051 29.5112 44.2547 30.5984 44.4653 32.9564C44.5475 33.879 44.459 34.1311 43.7365 34.7208C41.8762 36.2383 41.8417 37.8636 43.7365 39.409C44.459 39.9986 44.5475 40.2508 44.4653 41.1733C44.2439 43.6525 45.4507 44.6111 47.8671 44.4063V48.9977H6.42361V6.29208H65.5765V33.6774C65.5765 35.0153 67.6859 35.0153 67.6859 33.6774V5.25732C67.6859 4.68585 67.2138 4.22255 66.6312 4.22255H5.36892C4.78631 4.22255 4.31423 4.68585 4.31423 5.25732V50.0322C4.31423 50.6036 4.78631 51.0669 5.36892 51.0669H47.8671V53.2201H2.46094C2.26702 53.2201 2.10938 53.0653 2.10938 52.8752V16.1554C2.10938 14.8175 0 14.8175 0 16.1554V52.8752C0 54.2064 1.10405 55.2896 2.46094 55.2896H47.8671V59.9737C48.0172 60.8241 48.5172 61.1369 49.3665 60.9119L51.9452 59.7351L54.5238 60.9119C55.1618 61.203 56.0233 60.7429 56.0233 59.9737V55.2896H69.5391C70.896 55.2896 72 54.2064 72 52.8752V2.41446C72 1.08306 70.896 0 69.5391 0ZM47.5812 42.3531C46.5254 42.4443 46.4742 42.3888 46.5664 41.3535C46.7082 39.7645 46.3357 38.8374 45.0848 37.8172C44.229 37.1189 44.2291 37.0101 45.0848 36.3118C46.3357 35.2917 46.7083 34.3645 46.5664 32.7757C46.4742 31.7402 46.5254 31.6853 47.5812 31.776C49.2009 31.916 50.1446 31.5478 51.182 30.3189C51.8909 29.4795 51.9993 29.4795 52.7082 30.3189C53.7459 31.5478 54.6893 31.9154 56.3091 31.776C57.365 31.6848 57.4161 31.7402 57.3238 32.7755C57.1821 34.3645 57.5546 35.2915 58.8054 36.3117C59.6611 37.01 59.6616 37.1191 58.8053 37.8172C57.5544 38.8375 57.1818 39.7642 57.3237 41.3532C57.4163 42.3885 57.3649 42.4441 56.3092 42.3531C55.6467 42.296 54.8952 42.2311 54.2337 42.5007C53.5934 42.7616 53.1433 43.2946 52.7081 43.8102C52.503 44.053 52.1288 44.4963 51.9449 44.5756C51.7611 44.4963 51.3869 44.053 51.1819 43.8102C50.7466 43.2947 50.2966 42.7616 49.6562 42.5007C48.9736 42.2965 48.2819 42.2473 47.5812 42.3531ZM52.39 57.6558C52.1079 57.5271 51.7825 57.5271 51.5004 57.6558L49.9764 58.3513V45.61C50.4769 46.1499 51.0944 46.6511 51.9452 46.6511C52.796 46.6511 53.4134 46.15 53.9139 45.6101V58.3513L52.39 57.6558Z" fill="white"/>
<path d="M13.6777 14.9538H50.0358C51.3995 14.9538 51.3995 12.8843 50.0358 12.8843H13.6777C12.3139 12.8843 12.3139 14.9538 13.6777 14.9538Z" fill="white"/>
<path d="M59.3771 20.2129C59.3771 19.6415 58.905 19.1782 58.3224 19.1782H13.6776C12.314 19.1782 12.314 21.2477 13.6776 21.2477H58.3225C58.905 21.2477 59.3771 20.7844 59.3771 20.2129Z" fill="white"/>
<path d="M40.0974 26.5066C40.0974 25.9351 39.6253 25.4718 39.0427 25.4718H13.6776C12.314 25.4718 12.314 27.5413 13.6776 27.5413H39.0427C39.6252 27.5413 40.0974 27.078 40.0974 26.5066Z" fill="white"/>
<path d="M26.2478 40.9301C25.6728 40.9311 25.0977 40.9318 24.5226 40.9322C23.4163 40.9331 22.8073 40.6437 22.5813 39.4928C22.375 38.4422 20.8304 38.576 20.5473 39.4928C20.422 39.8988 19.7892 41.0612 19.2364 40.9662C18.9435 40.9158 18.8155 40.4725 18.7072 40.2429C18.4964 39.796 18.3429 39.3224 18.2114 38.8478C17.6562 36.8425 17.5454 34.7489 17.198 32.7058C16.9967 31.5211 15.156 31.8561 15.1264 32.9809C15.0319 36.5641 14.4348 40.0982 13.1346 43.4568C12.6521 44.7031 14.6904 45.242 15.1685 44.007C15.6699 42.712 16.0678 41.386 16.3767 40.0403C16.5423 40.5306 16.7399 41.0116 16.9811 41.4794C17.597 42.6737 18.8532 43.3802 20.1973 42.849C20.677 42.6595 21.1146 42.3281 21.4871 41.9248C22.485 43.0538 23.9696 43.0026 25.3546 43.0009C27.4424 42.9983 29.5303 42.9935 31.6183 42.9878C32.9755 42.9841 32.978 40.9146 31.6183 40.9183C29.8281 40.9233 28.038 40.9273 26.2478 40.9301Z" fill="white"/>
<path d="M51.9452 41.1063C54.2167 41.1063 56.0648 39.2932 56.0648 37.0646C56.0648 34.836 54.2167 33.023 51.9452 33.023C49.6738 33.023 47.8257 34.8362 47.8257 37.0646C47.8257 39.2931 49.6737 41.1063 51.9452 41.1063ZM51.9452 35.0925C53.0536 35.0925 53.9554 35.9773 53.9554 37.0646C53.9554 38.152 53.0536 39.0368 51.9452 39.0368C50.8368 39.0368 49.9351 38.1521 49.9351 37.0646C49.9351 35.9772 50.8368 35.0925 51.9452 35.0925Z" fill="white"/>
</svg>
