<svg width="307" height="222" viewBox="0 0 307 222" fill="none" xmlns="http://www.w3.org/2000/svg">
<path d="M20.2856 1.62109L101.146 220.38L305.375 92.2489L20.2856 1.62109Z" stroke="white" stroke-width="2" stroke-miterlimit="10" stroke-linecap="round" stroke-linejoin="round"/>
<path d="M250.931 168.974L10.4857 163.252L0 37.4722L275.559 22.4414L250.931 168.974Z" fill="#191919"/>
<path d="M250.931 168.974L10.4857 163.252L0 37.4722L275.559 22.4414L250.931 168.974Z" fill="url(#paint0_linear_5863_668)"/>
<path d="M250.931 168.974L10.4857 163.252L0 37.4722L275.559 22.4414L250.931 168.974Z" fill="url(#paint1_linear_5863_668)"/>
<path d="M101.146 220.38L305.375 92.249" stroke="white" stroke-width="2" stroke-miterlimit="10" stroke-linecap="round" stroke-linejoin="round"/>
<path d="M222.7 184.072L93.5107 175.824V142.929H222.7V184.072Z" fill="url(#paint2_linear_5863_668)"/>
<path opacity="0.6" d="M222.7 184.072L93.5107 142.929H222.7V184.072Z" fill="url(#paint3_linear_5863_668)"/>
<defs>
<linearGradient id="paint0_linear_5863_668" x1="41.96" y1="-55.3108" x2="297.737" y2="27.2139" gradientUnits="userSpaceOnUse">
<stop stop-color="#4D1735"/>
<stop offset="1" stop-color="#05325E"/>
</linearGradient>
<linearGradient id="paint1_linear_5863_668" x1="41.96" y1="-55.3108" x2="297.737" y2="27.2139" gradientUnits="userSpaceOnUse">
<stop stop-color="#06DBAC"/>
<stop offset="1" stop-color="#BD00FF"/>
</linearGradient>
<linearGradient id="paint2_linear_5863_668" x1="117.574" y1="118.882" x2="202.692" y2="204.068" gradientUnits="userSpaceOnUse">
<stop stop-color="#FFEB00"/>
<stop offset="0.2283" stop-color="#FFC400"/>
<stop offset="1" stop-color="#FF9900"/>
</linearGradient>
<linearGradient id="paint3_linear_5863_668" x1="125.804" y1="110.659" x2="210.921" y2="195.845" gradientUnits="userSpaceOnUse">
<stop offset="0.0293" stop-color="white" stop-opacity="0.95"/>
<stop offset="1" stop-color="white" stop-opacity="0"/>
</linearGradient>
</defs>
</svg>
