<svg width="16" height="16" viewBox="0 0 16 16" fill="none" xmlns="http://www.w3.org/2000/svg">
<path class="ico" fill-rule="evenodd" clip-rule="evenodd" d="M7.49143 3.29306C1.68514 5.95373 0.250496 6.62478 0.155273 6.72457C0.0233863 6.86277 -0.025895 7.0452 0.0128472 7.25167C0.0463199 7.4301 0.269496 7.65672 0.442463 7.68789C0.512896 7.70059 2.04511 7.83362 3.84732 7.98354C5.64958 8.13347 7.13355 8.26558 7.14509 8.27708C7.15659 8.28862 7.2887 9.77259 7.43862 11.5748C7.58854 13.3771 7.72169 14.9099 7.73457 14.9812C7.7647 15.1485 8.00109 15.3776 8.17769 15.4107C8.37723 15.4481 8.56096 15.3973 8.69763 15.2669C8.79746 15.1716 9.46736 13.7384 12.1318 7.91953C15.292 1.01815 15.4412 0.682902 15.423 0.521253C15.3902 0.230612 15.1796 0.02562 14.8882 0.000830963C14.717 -0.013753 14.3966 0.128821 7.49143 3.29306Z" fill="#FFF"/>
</svg>