<svg width="615" height="650" viewBox="0 0 615 650" fill="none" xmlns="http://www.w3.org/2000/svg">
<g filter="url(#filter0_d_5735_902)">
<path fill-rule="evenodd" clip-rule="evenodd" d="M261.093 117.252L214.954 216.584L200.02 219.721C191.808 221.447 148.926 229.025 104.729 236.562C60.5318 244.101 23.3485 251.119 22.0981 252.163C20.8477 253.203 31.6961 267.187 46.2055 283.236C60.715 299.281 91.9293 333.733 115.571 359.791L158.556 407.171L143.577 512.561C135.342 570.524 127.975 619.762 127.213 621.974C126.448 624.19 126.477 626 127.277 626C128.078 626 169.06 603.452 218.352 575.893L307.973 525.788L397.531 575.699C446.787 603.149 487.464 625.23 487.927 624.766C488.692 624.003 462.248 436.231 458.545 416.115C457.157 408.578 465.623 398.005 527.409 330.135C580.783 271.506 596.526 252.366 592.367 251.171C589.349 250.301 547.823 242.942 500.09 234.816C452.358 226.69 410.356 218.796 406.753 217.276C402.179 215.347 386.747 185.491 355.603 118.318C331.075 65.4115 310.156 21.1786 309.118 20.0224C308.08 18.8662 286.47 62.6191 261.093 117.252ZM347.076 151.842C367.223 195.636 384.741 232.642 386.004 234.079C387.268 235.515 424.136 243.077 467.934 250.884C511.733 258.691 548.357 265.873 549.324 266.839C550.288 267.809 546.736 273.29 541.43 279.02C536.12 284.75 509.826 313.587 483 343.105L434.222 396.774L447.485 487.35C454.778 537.167 459.95 578.727 458.976 579.699C458.005 580.675 424.518 563.229 384.561 540.932C344.607 518.635 310.281 500.393 308.285 500.393C306.286 500.393 272.118 518.51 232.35 540.652C192.586 562.794 158.848 580.91 157.379 580.91C155.914 580.91 155.415 576.923 156.274 572.054C159.912 551.406 180.265 406.285 180.265 400.981C180.265 397.786 154.094 366.564 122.109 331.601C90.1228 296.637 64.6011 267.377 65.395 266.582C66.1922 265.786 103.382 258.714 148.045 250.868C192.708 243.019 229.573 236.169 229.965 235.644C230.36 235.119 242.72 208.6 257.428 176.715C272.137 144.83 289.044 108.234 294.997 95.3928C300.947 82.5487 306.858 72.0815 308.131 72.1298C309.404 72.1749 326.928 108.047 347.076 151.842ZM275.242 186.284L243.382 255.238L214.234 260.411C198.204 263.255 166.473 268.83 143.722 272.798L102.353 280.012L152.969 335.656L203.585 391.299L200.364 411.226L197.144 431.149L224.636 468.943L252.128 506.738L262.002 500.361C267.431 496.854 271.414 492.165 270.851 489.942C270.289 487.72 251.067 446.222 228.139 397.721C205.208 349.224 186.951 309.043 187.565 308.428C188.179 307.813 214.35 344.957 245.722 390.968C277.09 436.981 303.988 474.628 305.489 474.628C306.993 474.628 317.199 479.713 328.169 485.926C339.14 492.139 347.352 495.401 346.414 493.173C345.478 490.944 326.404 448.54 304.026 398.942C265.593 313.761 257.165 293.642 261.549 297.548C262.578 298.47 297.485 351.952 339.12 416.401C392.938 499.707 417.755 535.37 424.968 539.766L435.113 545.947L433.226 534.288C432.188 527.876 409.369 470.473 382.523 406.726C355.674 342.979 334.273 290.257 334.964 289.564C335.655 288.872 349.223 309.491 365.118 335.388C381.013 361.283 398.765 389.798 404.564 398.758L415.113 415.045L414.319 403.338C413.686 393.943 415.885 388.752 425.47 377.032C432.037 369.003 437.411 361.134 437.411 359.553C437.411 357.972 430.902 340.348 422.947 320.386C414.991 300.428 408.505 282.402 408.53 280.328C408.556 278.253 418.061 292.83 429.655 312.721L450.731 348.889L467.574 330.435C506.869 287.394 512.218 281.2 511.006 280.144C510.305 279.532 479.48 273.812 442.499 267.435C405.522 261.055 374.182 254.701 372.858 253.312C371.53 251.928 357.14 221.805 340.882 186.377C324.62 150.95 310.368 120.92 309.211 119.645C308.054 118.372 292.767 148.357 275.242 186.284ZM186.424 509.514L181.657 544.903L193.013 539.003C218.136 525.956 217.815 527.148 203.746 499.131L191.188 474.126L186.424 509.514Z" fill="black"/>
<path fill-rule="evenodd" clip-rule="evenodd" d="M261.093 117.252L214.954 216.584L200.02 219.721C191.808 221.447 148.926 229.025 104.729 236.562C60.5318 244.101 23.3485 251.119 22.0981 252.163C20.8477 253.203 31.6961 267.187 46.2055 283.236C60.715 299.281 91.9293 333.733 115.571 359.791L158.556 407.171L143.577 512.561C135.342 570.524 127.975 619.762 127.213 621.974C126.448 624.19 126.477 626 127.277 626C128.078 626 169.06 603.452 218.352 575.893L307.973 525.788L397.531 575.699C446.787 603.149 487.464 625.23 487.927 624.766C488.692 624.003 462.248 436.231 458.545 416.115C457.157 408.578 465.623 398.005 527.409 330.135C580.783 271.506 596.526 252.366 592.367 251.171C589.349 250.301 547.823 242.942 500.09 234.816C452.358 226.69 410.356 218.796 406.753 217.276C402.179 215.347 386.747 185.491 355.603 118.318C331.075 65.4115 310.156 21.1786 309.118 20.0224C308.08 18.8662 286.47 62.6191 261.093 117.252ZM347.076 151.842C367.223 195.636 384.741 232.642 386.004 234.079C387.268 235.515 424.136 243.077 467.934 250.884C511.733 258.691 548.357 265.873 549.324 266.839C550.288 267.809 546.736 273.29 541.43 279.02C536.12 284.75 509.826 313.587 483 343.105L434.222 396.774L447.485 487.35C454.778 537.167 459.95 578.727 458.976 579.699C458.005 580.675 424.518 563.229 384.561 540.932C344.607 518.635 310.281 500.393 308.285 500.393C306.286 500.393 272.118 518.51 232.35 540.652C192.586 562.794 158.848 580.91 157.379 580.91C155.914 580.91 155.415 576.923 156.274 572.054C159.912 551.406 180.265 406.285 180.265 400.981C180.265 397.786 154.094 366.564 122.109 331.601C90.1228 296.637 64.6011 267.377 65.395 266.582C66.1922 265.786 103.382 258.714 148.045 250.868C192.708 243.019 229.573 236.169 229.965 235.644C230.36 235.119 242.72 208.6 257.428 176.715C272.137 144.83 289.044 108.234 294.997 95.3928C300.947 82.5487 306.858 72.0815 308.131 72.1298C309.404 72.1749 326.928 108.047 347.076 151.842ZM275.242 186.284L243.382 255.238L214.234 260.411C198.204 263.255 166.473 268.83 143.722 272.798L102.353 280.012L152.969 335.656L203.585 391.299L200.364 411.226L197.144 431.149L224.636 468.943L252.128 506.738L262.002 500.361C267.431 496.854 271.414 492.165 270.851 489.942C270.289 487.72 251.067 446.222 228.139 397.721C205.208 349.224 186.951 309.043 187.565 308.428C188.179 307.813 214.35 344.957 245.722 390.968C277.09 436.981 303.988 474.628 305.489 474.628C306.993 474.628 317.199 479.713 328.169 485.926C339.14 492.139 347.352 495.401 346.414 493.173C345.478 490.944 326.404 448.54 304.026 398.942C265.593 313.761 257.165 293.642 261.549 297.548C262.578 298.47 297.485 351.952 339.12 416.401C392.938 499.707 417.755 535.37 424.968 539.766L435.113 545.947L433.226 534.288C432.188 527.876 409.369 470.473 382.523 406.726C355.674 342.979 334.273 290.257 334.964 289.564C335.655 288.872 349.223 309.491 365.118 335.388C381.013 361.283 398.765 389.798 404.564 398.758L415.113 415.045L414.319 403.338C413.686 393.943 415.885 388.752 425.47 377.032C432.037 369.003 437.411 361.134 437.411 359.553C437.411 357.972 430.902 340.348 422.947 320.386C414.991 300.428 408.505 282.402 408.53 280.328C408.556 278.253 418.061 292.83 429.655 312.721L450.731 348.889L467.574 330.435C506.869 287.394 512.218 281.2 511.006 280.144C510.305 279.532 479.48 273.812 442.499 267.435C405.522 261.055 374.182 254.701 372.858 253.312C371.53 251.928 357.14 221.805 340.882 186.377C324.62 150.95 310.368 120.92 309.211 119.645C308.054 118.372 292.767 148.357 275.242 186.284ZM186.424 509.514L181.657 544.903L193.013 539.003C218.136 525.956 217.815 527.148 203.746 499.131L191.188 474.126L186.424 509.514Z" fill="url(#paint0_linear_5735_902)"/>
</g>
<defs>
<filter id="filter0_d_5735_902" x="0" y="0" width="615" height="650" filterUnits="userSpaceOnUse" color-interpolation-filters="sRGB">
<feFlood flood-opacity="0" result="BackgroundImageFix"/>
<feColorMatrix in="SourceAlpha" type="matrix" values="0 0 0 0 0 0 0 0 0 0 0 0 0 0 0 0 0 0 127 0" result="hardAlpha"/>
<feOffset dy="2"/>
<feGaussianBlur stdDeviation="11"/>
<feComposite in2="hardAlpha" operator="out"/>
<feColorMatrix type="matrix" values="0 0 0 0 0.027451 0 0 0 0 0.278431 0 0 0 0 0.988235 0 0 0 1 0"/>
<feBlend mode="normal" in2="BackgroundImageFix" result="effect1_dropShadow_5735_902"/>
<feBlend mode="normal" in="SourceGraphic" in2="effect1_dropShadow_5735_902" result="shape"/>
</filter>
<linearGradient id="paint0_linear_5735_902" x1="307.5" y1="20" x2="307.5" y2="626" gradientUnits="userSpaceOnUse">
<stop stop-color="#03FBBF"/>
<stop offset="1" stop-color="#063DFF"/>
</linearGradient>
</defs>
</svg>
