<svg width="210" height="39" viewBox="0 0 210 39" fill="none" xmlns="http://www.w3.org/2000/svg">
<path d="M0 38.2558L4.42614 30.6047H39.8285L13.2784 15.3023L22.1307 0L44.2546 38.2558H0Z" fill="#667EEA"/>
<path d="M79.469 30.6247H77.4772V15.3693H61.865L53.8175 29.2793C53.3346 30.1093 52.4494 30.6247 51.4837 30.6247H49.9346V35.4109H79.469V30.6247ZM65.4596 20.1554H72.186V30.6247H59.4172L65.4596 20.1554Z" fill="#667EEA"/>
<path d="M104.765 30.6247H107.274C107.911 30.6247 108.454 30.1762 108.575 29.5537L111.324 15.3693H128.573V35.4109H123.281V20.1487H115.791L113.752 30.6381C113.215 33.4094 110.781 35.4109 107.951 35.4109H104.759V30.6247H104.765Z" fill="#667EEA"/>
<path d="M144.956 20.1688H135.715V15.3693H130.424V35.4109H144.956C149.175 35.4109 152.595 31.997 152.595 27.7865C152.595 23.5827 149.175 20.1688 144.956 20.1688ZM144.239 30.6247H135.715V24.9483H144.239C145.808 24.9483 147.082 26.2201 147.082 27.7865C147.082 29.3529 145.815 30.6247 144.239 30.6247Z" fill="#667EEA"/>
<path d="M103.229 30.6247H86.2961V27.7798H101.439V23.0003H86.2961V20.1487H102.82V15.3693H81.0049V35.4109L103.229 35.4042V30.6247Z" fill="#667EEA"/>
<path d="M203.629 35.4109H210L198.431 15.3693H190.337L178.769 35.4109H185.14L186.521 33.0145H202.254L203.629 35.4109ZM189.277 28.235L193.945 20.1554H194.823L199.491 28.235H189.277Z" fill="#667EEA"/>
<path d="M174.443 17.7657H170.493V15.3625H165.202V17.7657H161.252C157.033 17.7657 153.613 21.1796 153.613 25.3901C153.613 29.6005 157.033 33.0144 161.252 33.0144H165.202V35.4176H170.493V33.0144H174.443C178.661 33.0144 182.081 29.6005 182.081 25.3901C182.081 21.1729 178.661 17.7657 174.443 17.7657ZM165.202 28.2216H161.963C160.393 28.2216 159.119 26.9497 159.119 25.3834C159.119 23.817 160.393 22.5451 161.963 22.5451H165.202V28.2216ZM173.725 28.2216H170.486V22.5451H173.725C175.295 22.5451 176.569 23.817 176.569 25.3834C176.569 26.9497 175.295 28.2216 173.725 28.2216Z" fill="#667EEA"/>
</svg>
