<svg width="16" height="17" viewBox="0 0 16 17" fill="none" xmlns="http://www.w3.org/2000/svg">
<path d="M15.7987 15.8357L11.2504 11.2875C12.1314 10.1992 12.6618 8.81639 12.6618 7.31031C12.6618 3.81963 9.82158 0.97937 6.33091 0.97937C2.84023 0.97937 0 3.8196 0 7.31028C0 10.801 2.84026 13.6412 6.33094 13.6412C7.83702 13.6412 9.21984 13.1108 10.3081 12.2298L14.8564 16.778C14.9863 16.908 15.1569 16.9733 15.3275 16.9733C15.4981 16.9733 15.6687 16.908 15.7987 16.778C16.0592 16.5175 16.0592 16.0963 15.7987 15.8357ZM6.33094 12.3084C3.57464 12.3084 1.33284 10.0666 1.33284 7.31028C1.33284 4.55398 3.57464 2.31218 6.33094 2.31218C9.08724 2.31218 11.329 4.55398 11.329 7.31028C11.329 10.0666 9.0872 12.3084 6.33094 12.3084Z" fill="#A6A6A6"/>
</svg>
