<svg width="13" height="14" viewBox="0 0 13 14" fill="none" xmlns="http://www.w3.org/2000/svg">
<path fill-rule="evenodd" clip-rule="evenodd" d="M1.96618 0.0357739C1.56795 0.146598 0.74028 0.814333 0.350468 1.33922C0.0228623 1.78036 -0.0187822 1.96808 0.00588189 2.89199C0.0223428 3.508 0.0607881 3.86423 0.177026 4.47793C0.978416 8.70851 4.00534 12.2515 7.91344 13.5334C8.83881 13.8369 9.92187 14.0202 10.5849 13.9855C10.8539 13.9714 10.8965 13.9612 11.115 13.8588C11.5642 13.6483 12.0001 13.3088 12.4471 12.8212C12.8141 12.4208 12.9037 12.2353 12.9037 11.8757C12.9037 11.637 12.8333 11.3752 12.6701 11.0061C12.5044 10.6315 12.3926 10.5263 11.9116 10.2924C11.1625 9.92807 9.70754 9.44378 9.38385 9.45103C9.05816 9.4583 8.76263 9.64749 7.91702 10.39C7.78367 10.5071 7.6601 10.6029 7.64246 10.6029C7.59161 10.6029 7.14475 10.3399 6.86341 10.1443C6.06908 9.59212 5.0546 8.66273 4.54932 8.02428C3.91098 7.21772 3.36457 6.31267 3.0957 5.61653C3.04423 5.48328 3.0059 5.3715 3.01052 5.36811C3.01514 5.36469 3.20348 5.19593 3.42907 4.99303C4.04966 4.43487 4.27757 4.16438 4.36108 3.8869C4.39644 3.7694 4.39605 3.7178 4.3578 3.43925C4.22403 2.46483 3.88894 1.1599 3.66737 0.750458C3.577 0.58347 3.48173 0.500481 3.15965 0.308309C2.69689 0.0321372 2.30265 -0.0578785 1.96618 0.0357739Z" fill="#FFF"/>
</svg>
