<svg width="371" height="36" viewBox="0 0 371 36" fill="none" xmlns="http://www.w3.org/2000/svg">
<path d="M18 33C26.2843 33 33 26.2843 33 18C33 9.71573 26.2843 3 18 3C9.71573 3 3 9.71573 3 18C3 26.2843 9.71573 33 18 33Z" stroke="white" stroke-linecap="round" stroke-linejoin="round"/>
<path d="M3 18H33" stroke="white" stroke-linecap="round" stroke-linejoin="round"/>
<path d="M18 3C21.7519 7.10753 23.8841 12.4381 24 18C23.8841 23.5619 21.7519 28.8925 18 33C14.2481 28.8925 12.1159 23.5619 12 18C12.1159 12.4381 14.2481 7.10753 18 3V3Z" stroke="white" stroke-linecap="round" stroke-linejoin="round"/>
<path d="M76.528 24.896V26H64.984V25.136L72.088 18.08C73.016 17.152 73.64 16.36 73.96 15.704C74.296 15.032 74.464 14.344 74.464 13.64C74.464 12.568 74.096 11.728 73.36 11.12C72.64 10.512 71.592 10.208 70.216 10.208C69.16 10.208 68.232 10.368 67.432 10.688C66.648 11.008 65.968 11.496 65.392 12.152L64.528 11.384C65.168 10.648 65.976 10.08 66.952 9.68C67.944 9.28 69.064 9.08 70.312 9.08C71.96 9.08 73.272 9.48 74.248 10.28C75.224 11.08 75.712 12.16 75.712 13.52C75.712 14.384 75.52 15.208 75.136 15.992C74.752 16.776 74.032 17.688 72.976 18.728L66.784 24.896H76.528ZM93.4315 17.216C94.5675 17.472 95.4555 17.96 96.0955 18.68C96.7515 19.4 97.0795 20.272 97.0795 21.296C97.0795 22.272 96.7835 23.128 96.1915 23.864C95.5995 24.6 94.8155 25.16 93.8395 25.544C92.8635 25.928 91.8075 26.12 90.6715 26.12C89.5675 26.12 88.4795 25.928 87.4075 25.544C86.3515 25.16 85.4075 24.592 84.5755 23.84L85.0795 22.976C85.8155 23.664 86.6555 24.184 87.5995 24.536C88.5595 24.872 89.5355 25.04 90.5275 25.04C91.4715 25.04 92.3515 24.888 93.1675 24.584C93.9835 24.264 94.6315 23.816 95.1115 23.24C95.5915 22.648 95.8315 21.952 95.8315 21.152C95.8315 20.08 95.4155 19.256 94.5835 18.68C93.7515 18.088 92.5835 17.792 91.0795 17.792H87.6235V16.736H91.0315C92.3115 16.736 93.3115 16.464 94.0315 15.92C94.7515 15.36 95.1115 14.592 95.1115 13.616C95.1115 12.528 94.6555 11.672 93.7435 11.048C92.8475 10.408 91.7275 10.088 90.3835 10.088C89.5675 10.088 88.7435 10.208 87.9115 10.448C87.0955 10.688 86.3115 11.056 85.5595 11.552L85.1035 10.52C85.9355 10.008 86.7995 9.624 87.6955 9.368C88.6075 9.112 89.5115 8.984 90.4075 8.984C91.4955 8.984 92.4875 9.168 93.3835 9.536C94.2955 9.888 95.0155 10.408 95.5435 11.096C96.0875 11.768 96.3595 12.56 96.3595 13.472C96.3595 14.384 96.0955 15.168 95.5675 15.824C95.0555 16.48 94.3435 16.944 93.4315 17.216ZM112.484 21.272H102.74L100.604 26H99.2841L107.012 9.2H108.236L115.964 26H114.644L112.484 21.272ZM112.028 20.24L107.612 10.544L103.22 20.24H112.028ZM133.134 9.2V26H131.91V18.008H120.678V26H119.454V9.2H120.678V16.928H131.91V9.2H133.134ZM150.708 9.2V26H149.484V20.72H144.132C143.716 20.72 143.324 20.696 142.956 20.648L139.236 26H137.916L141.804 20.432C140.556 20.08 139.596 19.448 138.924 18.536C138.252 17.608 137.916 16.448 137.916 15.056C137.916 13.2 138.492 11.76 139.644 10.736C140.812 9.712 142.388 9.2 144.372 9.2H150.708ZM139.164 15.032C139.164 16.52 139.596 17.664 140.46 18.464C141.324 19.264 142.588 19.664 144.252 19.664H149.484V10.304H144.468C142.772 10.304 141.46 10.712 140.532 11.528C139.62 12.328 139.164 13.496 139.164 15.032ZM167.302 10.304H161.254V26H160.03V10.304H153.982V9.2H167.302V10.304ZM170.571 9.2H171.795V23.936L183.243 9.2H184.323V26H183.099V11.288L171.651 26H170.571V9.2ZM201.896 9.2V26H200.672V20.72H195.32C194.904 20.72 194.512 20.696 194.144 20.648L190.424 26H189.104L192.992 20.432C191.744 20.08 190.784 19.448 190.112 18.536C189.44 17.608 189.104 16.448 189.104 15.056C189.104 13.2 189.68 11.76 190.832 10.736C192 9.712 193.576 9.2 195.56 9.2H201.896ZM190.352 15.032C190.352 16.52 190.784 17.664 191.648 18.464C192.512 19.264 193.776 19.664 195.44 19.664H200.672V10.304H195.656C193.96 10.304 192.648 10.712 191.72 11.528C190.808 12.328 190.352 13.496 190.352 15.032ZM214.118 9.2H226.094V10.28H215.342V16.328H221.03C222.998 16.328 224.494 16.728 225.518 17.528C226.542 18.328 227.054 19.504 227.054 21.056C227.054 22.656 226.51 23.88 225.422 24.728C224.334 25.576 222.758 26 220.694 26H214.118V9.2ZM220.718 24.968C222.398 24.968 223.67 24.648 224.534 24.008C225.398 23.352 225.83 22.384 225.83 21.104C225.83 18.592 224.126 17.336 220.718 17.336H215.342V24.968H220.718ZM243.054 24.896V26H231.462V9.2H242.694V10.304H232.686V16.928H241.638V18.008H232.686V24.896H243.054ZM254.247 26.12C252.599 26.12 251.111 25.752 249.783 25.016C248.471 24.28 247.431 23.264 246.663 21.968C245.911 20.672 245.535 19.216 245.535 17.6C245.535 15.984 245.911 14.528 246.663 13.232C247.431 11.936 248.471 10.92 249.783 10.184C251.111 9.448 252.599 9.08 254.247 9.08C255.463 9.08 256.583 9.28 257.607 9.68C258.631 10.064 259.503 10.64 260.223 11.408L259.455 12.2C258.111 10.872 256.391 10.208 254.295 10.208C252.887 10.208 251.607 10.528 250.455 11.168C249.303 11.808 248.399 12.696 247.743 13.832C247.087 14.952 246.759 16.208 246.759 17.6C246.759 18.992 247.087 20.256 247.743 21.392C248.399 22.512 249.303 23.392 250.455 24.032C251.607 24.672 252.887 24.992 254.295 24.992C256.375 24.992 258.095 24.32 259.455 22.976L260.223 23.768C259.503 24.536 258.623 25.12 257.583 25.52C256.559 25.92 255.447 26.12 254.247 26.12ZM278.004 9.2V26H276.78V10.304H265.404V26H264.18V9.2H278.004ZM296.447 9.2V26H295.223V10.304H286.535L286.319 16.472C286.223 18.776 286.023 20.632 285.719 22.04C285.431 23.432 284.999 24.464 284.423 25.136C283.847 25.808 283.087 26.144 282.143 26.144C281.711 26.144 281.311 26.096 280.943 26L281.087 24.872C281.359 24.936 281.623 24.968 281.879 24.968C282.615 24.968 283.207 24.688 283.655 24.128C284.119 23.552 284.471 22.648 284.711 21.416C284.951 20.184 285.111 18.544 285.191 16.496L285.431 9.2H296.447ZM313.133 21.272H303.389L301.253 26H299.933L307.661 9.2H308.885L316.613 26H315.293L313.133 21.272ZM312.677 20.24L308.261 10.544L303.869 20.24H312.677ZM329.794 10.304H323.746V26H322.522V10.304H316.474V9.2H329.794V10.304ZM346.743 9.2V26H345.519V18.008H334.287V26H333.063V9.2H334.287V16.928H345.519V9.2H346.743ZM359.997 26.12C358.349 26.12 356.861 25.752 355.533 25.016C354.205 24.264 353.157 23.24 352.389 21.944C351.637 20.648 351.261 19.2 351.261 17.6C351.261 16 351.637 14.552 352.389 13.256C353.157 11.96 354.205 10.944 355.533 10.208C356.861 9.456 358.349 9.08 359.997 9.08C361.645 9.08 363.133 9.448 364.461 10.184C365.789 10.92 366.829 11.936 367.581 13.232C368.349 14.528 368.733 15.984 368.733 17.6C368.733 19.216 368.349 20.672 367.581 21.968C366.829 23.264 365.789 24.28 364.461 25.016C363.133 25.752 361.645 26.12 359.997 26.12ZM359.997 24.992C361.405 24.992 362.677 24.672 363.813 24.032C364.949 23.392 365.845 22.512 366.501 21.392C367.157 20.256 367.485 18.992 367.485 17.6C367.485 16.208 367.157 14.952 366.501 13.832C365.845 12.696 364.949 11.808 363.813 11.168C362.677 10.528 361.405 10.208 359.997 10.208C358.589 10.208 357.309 10.528 356.157 11.168C355.021 11.808 354.125 12.696 353.469 13.832C352.813 14.952 352.485 16.208 352.485 17.6C352.485 18.992 352.813 20.256 353.469 21.392C354.125 22.512 355.021 23.392 356.157 24.032C357.309 24.672 358.589 24.992 359.997 24.992Z" fill="white"/>
</svg>
