<svg width="21" height="21" viewBox="0 0 21 21" fill="none" xmlns="http://www.w3.org/2000/svg">
<path fill-rule="evenodd" clip-rule="evenodd" d="M9.58381 0.0195109C7.065 0.188221 5.05244 0.735934 3.6591 1.63186C2.05607 2.66268 1.1426 4.63991 0.917615 7.56578C0.861593 8.2946 0.860568 10.537 0.91595 11.1575C1.12407 13.4879 1.79586 15.1608 2.98244 16.3037C3.63553 16.9328 4.45315 17.4185 5.34318 17.7062L5.69272 17.8192L5.70612 19.0961C5.71864 20.2912 5.72521 20.3849 5.80907 20.559C5.9926 20.9403 6.35994 21.0903 6.75675 20.9459C7.02358 20.8488 7.55523 20.3309 8.48387 19.2635L9.19866 18.4418L9.67946 18.4766C10.3425 18.5244 12.3439 18.4816 13.0425 18.4046C14.4394 18.2507 15.7237 17.9727 16.7413 17.604C18.0305 17.137 19.0686 16.2664 19.7781 15.0572C20.1391 14.4419 20.4805 13.4238 20.6177 12.5532C20.9047 10.7325 20.9566 8.46651 20.7482 6.84886C20.4726 4.70887 19.7967 3.15083 18.7022 2.13294C18.237 1.70029 17.8797 1.46709 17.2136 1.16128C15.9056 0.560779 14.1884 0.177466 12.1671 0.0348221C11.626 -0.00335316 10.0636 -0.0126302 9.58381 0.0195109ZM12.8717 1.57008C14.6347 1.77767 16.3283 2.27407 17.173 2.83081C18.3324 3.59493 19.0002 5.03985 19.2857 7.40158C19.3575 7.99564 19.3563 10.255 19.2838 11.0344C19.0896 13.1216 18.6152 14.3119 17.6053 15.2448C16.9049 15.8919 16.2976 16.1764 14.8999 16.512C13.5219 16.843 12.5685 16.9509 10.8434 16.9711L9.51976 16.9867L9.09515 17.4894C8.34039 18.383 7.44298 19.4185 7.05437 19.8441C6.54803 20.3987 6.39641 20.4604 6.29137 20.1544C6.25285 20.0422 6.24627 19.5602 6.26519 18.2331L6.29038 16.4616L5.96224 16.3497C4.37565 15.8088 3.3313 14.7526 2.79674 13.1484C2.47743 12.1902 2.40476 11.6276 2.37961 9.92045C2.35237 8.0717 2.43115 7.01404 2.66962 6.02645C2.94312 4.89392 3.43425 3.95423 4.09084 3.3073C5.06644 2.34603 6.97789 1.7005 9.45571 1.49546C9.95722 1.45396 12.3247 1.50568 12.8717 1.57008ZM10.5535 3.8276C10.5134 3.86618 10.4805 3.94836 10.4805 4.01014C10.4805 4.22729 10.544 4.2568 11.1125 4.3038C12.0434 4.38073 12.7911 4.61487 13.4626 5.03964C14.8595 5.92334 15.5703 7.24909 15.7143 9.23933C15.7431 9.63705 15.7912 9.72083 15.9908 9.72083C16.2076 9.72083 16.2616 9.5825 16.2273 9.11413C16.1556 8.13467 15.9558 7.35942 15.5849 6.62108C14.7399 4.93919 13.0642 3.88346 11.0766 3.78068C10.6881 3.76056 10.6165 3.76697 10.5535 3.8276ZM6.74428 4.46176C6.49637 4.57123 6.08333 4.88242 5.81215 5.16402C5.40035 5.59158 5.19172 6.14972 5.30556 6.51924C5.38925 6.79094 6.12966 8.38769 6.40708 8.89473C7.44101 10.7846 8.6726 12.1186 10.4165 13.2378C11.5479 13.9639 13.0342 14.7029 13.6964 14.8687C14.3131 15.0231 14.9872 14.6449 15.5585 13.8238C15.8924 13.344 15.9552 13.0406 15.7842 12.7334C15.6533 12.4983 14.6353 11.7107 13.9349 11.3028C13.6361 11.1287 13.5468 11.0967 13.321 11.0829C12.9472 11.06 12.7828 11.1511 12.4493 11.5656C12.0579 12.0519 11.875 12.1207 11.3928 11.9631C10.9908 11.8317 10.524 11.6041 10.1816 11.3727C9.39486 10.8409 8.60351 9.79776 8.26114 8.8412C8.09252 8.37 8.15632 8.20162 8.6568 7.79643C9.06061 7.46956 9.15681 7.3107 9.15681 6.97074C9.15681 6.80999 9.11736 6.69485 8.96868 6.42159C8.59877 5.74178 7.69858 4.57025 7.4519 4.4476C7.28131 4.36283 6.95342 4.36936 6.74428 4.46176ZM11.0426 5.18898C10.9271 5.26672 10.9169 5.4938 11.0249 5.58247C11.066 5.61621 11.2605 5.66654 11.4572 5.69437C12.8016 5.88442 13.7671 6.61472 14.1307 7.71651C14.2356 8.03455 14.3235 8.56761 14.3235 8.88619C14.3235 9.16031 14.5679 9.28058 14.7566 9.09923C14.8421 9.01705 14.8464 8.98388 14.8216 8.59507C14.759 7.61126 14.3883 6.77912 13.7386 6.16364C13.1503 5.60644 12.3297 5.26048 11.3308 5.14871C11.1942 5.13344 11.107 5.14559 11.0426 5.18898ZM11.4199 6.64218C11.3729 6.68734 11.3345 6.77046 11.3345 6.8269C11.3345 6.99171 11.4623 7.07771 11.7502 7.10665C12.4284 7.17479 12.8123 7.56315 12.9143 8.28413C12.9466 8.51306 12.9808 8.61042 13.0476 8.66383C13.1669 8.75931 13.2791 8.75451 13.3886 8.64926C13.4692 8.57176 13.4753 8.53465 13.4481 8.29008C13.343 7.34625 12.8218 6.75888 11.9521 6.60433C11.6031 6.54231 11.5175 6.54839 11.4199 6.64218Z" fill="white"/>
</svg>
