<svg width="27" height="16" viewBox="0 0 27 16" fill="none" xmlns="http://www.w3.org/2000/svg">
<path d="M23.4048 6.55265C23.781 6.04744 24.0779 5.64274 24.2982 5.33726C25.8835 3.14411 26.5697 1.74336 26.3599 1.13241L26.2767 0.988807C26.2226 0.903947 26.08 0.82432 25.8518 0.753826C25.6222 0.682024 25.3292 0.670275 24.9714 0.717262L21.0133 0.745993C20.9222 0.736844 20.8297 0.73946 20.7386 0.753826C20.6463 0.768174 20.5869 0.78254 20.5592 0.795589C20.5327 0.811254 20.5104 0.823003 20.4906 0.832153L20.4365 0.875233C20.3902 0.902647 20.3402 0.95356 20.286 1.02535C20.2293 1.09585 20.1843 1.17941 20.1474 1.276C19.7171 2.42872 19.2261 3.5018 18.6772 4.49263C18.3379 5.084 18.0264 5.59706 17.7427 6.03046C17.4589 6.46517 17.2201 6.78371 17.0273 6.98866C16.836 7.19363 16.6617 7.35811 16.506 7.48212C16.3489 7.60614 16.2301 7.65835 16.1483 7.64009C16.0665 7.62051 15.9873 7.60223 15.9147 7.58134C15.7866 7.49648 15.6837 7.38029 15.6058 7.23147C15.5266 7.08527 15.4752 6.89858 15.4474 6.67405C15.4197 6.45082 15.4039 6.2563 15.3986 6.09443C15.3946 5.93255 15.3973 5.7041 15.4065 5.40776C15.4158 5.11273 15.4197 4.913 15.4197 4.80726C15.4197 4.44564 15.4263 4.0514 15.4408 3.62712C15.454 3.20416 15.4659 2.86735 15.4752 2.61932C15.4844 2.37259 15.4884 2.10888 15.4884 1.83344C15.4884 1.55668 15.4725 1.33998 15.4408 1.18201C15.4078 1.02535 15.3603 0.872616 15.2957 0.725095C15.231 0.577587 15.1373 0.462707 15.0145 0.381768C14.8905 0.30083 14.736 0.235559 14.5539 0.188563C14.0682 0.0736824 13.4492 0.0123258 12.6982 0.00188158C10.9943 -0.0163935 9.89883 0.0984852 9.41443 0.345217C9.22175 0.450958 9.04753 0.594558 8.89178 0.774708C8.72679 0.984891 8.70303 1.09976 8.82182 1.11805C9.37352 1.20421 9.76156 1.40915 9.99121 1.73291L10.073 1.90393C10.1377 2.02925 10.2011 2.24857 10.2657 2.56318C10.3291 2.87648 10.3713 3.22504 10.3898 3.60624C10.436 4.30335 10.436 4.89863 10.3898 5.39471C10.3436 5.88947 10.3014 6.27589 10.2591 6.55265C10.2169 6.82809 10.1562 7.05264 10.0744 7.22364C9.99121 7.39728 9.93577 7.5017 9.90806 7.53956C9.88034 7.57743 9.8579 7.60093 9.83943 7.61136C9.72065 7.65835 9.59657 7.68185 9.46855 7.68185C9.34053 7.68185 9.18478 7.61527 9.00133 7.48082C8.81786 7.34896 8.6278 7.1649 8.43116 6.93123C8.2345 6.69755 8.01145 6.37118 7.76463 5.95083C7.51783 5.53178 7.26046 5.0357 6.99517 4.46392L6.77475 4.04879C6.63881 3.78248 6.45007 3.39476 6.2125 2.88432C5.97362 2.37389 5.76243 1.88043 5.58029 1.40394C5.50638 1.20421 5.39551 1.05147 5.25034 0.945727L5.18038 0.902647C5.13551 0.864783 5.0616 0.82432 4.9613 0.78254C4.86098 0.738161 4.7554 0.708131 4.64453 0.68855L0.879019 0.717262C0.49362 0.717262 0.233611 0.808655 0.0950283 0.988807L0.0409144 1.07497C0.0131978 1.12326 0 1.19899 0 1.30341C0 1.40915 0.0277167 1.53709 0.0831498 1.68983C0.632197 3.03445 1.23008 4.33076 1.8755 5.58008C2.52222 6.82809 3.08315 7.83459 3.55961 8.59698C4.03608 9.36066 4.52046 10.08 5.01673 10.7575C5.51167 11.435 5.83899 11.8671 5.99869 12.0577C6.15971 12.2496 6.28509 12.3919 6.37615 12.4872L6.72063 12.8319C6.93974 13.0603 7.26309 13.3345 7.6894 13.653C8.1144 13.9728 8.58689 14.2874 9.10559 14.5968C9.62166 14.9075 10.2248 15.1595 10.9125 15.3553C11.5988 15.5511 12.2679 15.6294 12.9186 15.5916H14.4985C14.8205 15.5629 15.0634 15.4584 15.227 15.277L15.2825 15.2052C15.3194 15.1491 15.3537 15.0603 15.3854 14.9415C15.4171 14.8214 15.4342 14.6908 15.4342 14.5485C15.425 14.1386 15.454 13.7679 15.5227 13.4389C15.5926 13.1099 15.6692 12.8632 15.7563 12.6948C15.8434 12.529 15.9424 12.388 16.0532 12.2731C16.1628 12.1582 16.2393 12.0904 16.2869 12.0669C16.3317 12.0434 16.3687 12.0264 16.3964 12.016C16.6155 11.9403 16.8742 12.0133 17.1726 12.2379C17.4708 12.4624 17.7506 12.7379 18.0105 13.0669C18.2719 13.3971 18.5861 13.7653 18.9529 14.1752C19.3186 14.5864 19.6393 14.8906 19.9138 15.0916L20.1897 15.2626C20.3718 15.3775 20.6107 15.4819 20.9049 15.5772C21.1967 15.6725 21.4541 15.6973 21.6745 15.649L25.1931 15.5916C25.5403 15.5916 25.8108 15.5315 26.0035 15.4127C26.1948 15.294 26.3097 15.1621 26.3468 15.0198C26.3836 14.8762 26.3849 14.7156 26.3532 14.5329C26.3216 14.3527 26.2886 14.2261 26.2582 14.1556C26.2253 14.0838 26.1948 14.0237 26.1671 13.9754C25.7105 13.1191 24.8342 12.0643 23.542 10.8162L23.5143 10.7875L23.5011 10.7719L23.488 10.7588H23.4734C22.8874 10.1766 22.5165 9.78624 22.3608 9.58521C22.077 9.20533 22.0123 8.81761 22.1695 8.42727C22.2776 8.13093 22.6894 7.50562 23.4048 6.55265Z" fill="white"/>
</svg>
