<svg width="23" height="15" viewBox="0 0 23 15" fill="none" xmlns="http://www.w3.org/2000/svg">
<path d="M10.0417 10.5883V4.41178L15.5417 7.50003L10.0417 10.5883ZM22.655 3.25022C22.655 3.25022 22.4405 1.7819 21.7805 1.13549C20.9445 0.28682 20.0061 0.273973 19.5761 0.223673C16.4982 0.00856065 11.8794 0 11.8794 0H11.8706C11.8706 0 7.25279 0.00856065 4.17389 0.223673C3.7438 0.273973 2.8066 0.282532 1.96949 1.13122C1.3095 1.77761 1.095 3.24701 1.095 3.24701C1.095 3.24701 0.875 4.97325 0.875 6.69736V8.31338C0.875 10.0375 1.095 11.7616 1.095 11.7616C1.095 11.7616 1.3095 13.2299 1.96949 13.8764C2.8066 14.7239 3.9055 14.6972 4.39499 14.786C6.155 14.9498 11.875 15 11.875 15C11.875 15 16.4982 14.9936 19.5761 14.7785C20.0061 14.7283 20.9445 14.7239 21.7805 13.8764C22.4405 13.2299 22.655 11.7616 22.655 11.7616C22.655 11.7616 22.875 10.0375 22.875 8.31338V6.69736C22.875 4.97325 22.655 3.25022 22.655 3.25022Z" fill="white"/>
</svg>
